<svg width="412" height="548" viewBox="0 0 412 548" fill="none" xmlns="http://www.w3.org/2000/svg">
<path d="M101.5 71L105.5 65.5L104 62L103 56L103.5 51.5L106 45L109 40.5L116.5 33.5L122.5 30L127 26L132.5 22L137 19.5L141.5 18L148 16.5H153H157L160.5 17L165.5 17.5L168 16.5H174L179 15.5L181.5 12.5L185 7L188.5 4L195 2.5L201.5 4L208 7L220 9.5L228 5L233 2L239 1L245.5 3H256.5L266 5L270 6L279 6.5L284 8.5L293 12L296.5 13H306.5L318.5 12.5H326L331.5 14L334.5 16.5L336 21H348.5L362 25.5L373.5 33L384.5 43L392 52.5L394.5 55L397 58.5L401.5 60L404 61.5V65.5L403.5 67.5L405.5 77.5L409 81.5L405.5 86.5L407.5 90L411 93.5L410.5 99L408.5 105L401.5 110.5L395 114.5H391L382 118V120.5L380.5 121.5L382 123.5L385 129L386 134.5L384.5 138.5L382.5 142H381L380.5 144L376 147L372.5 147.5H368L364 149L365 151.5V155.5L366 158V165L365.5 171L364 174.5L359.5 176.5L354 179.5L351 182L350 188L352 197.5L354 212.5L354.5 222.5L357 237.5L358.5 245.5V251.5L357 254.5L353.5 258.5L349.5 261L341 261.5L335.5 260H332L330 262L330.5 268.5L332.5 273.5L331 278L328 281.5L324 283L325.5 285L326.5 288.5L325 293L319 296L315 300.5L316 302.5L318 309L317.5 317L315 324.5L310.5 330.5L304 335L292.5 337.5L277 336.5H270L265.5 338L267.5 352.5L269 368.5L271.5 367.5H277L287.5 371L300 375.5L309 378.5L331 388L337 392L342.5 394.5L346 399L346.5 404.5L355.5 415V417L361.5 425L366.5 430.5L374 434L373.5 438L368 450.5L362.5 462L355.5 474.5L351 479L340.5 479.5L332 482L326 490.5L320 500L311 510L299.5 520L285.5 528L275.5 533.5L266.5 538.5L250 546.5L242 546L221 547H198H171.5L148.5 547.5L124 547L113.5 542L88.5 531.5L67 517.5L51 504.5L35.5 488.5L24.5 474L13.5 462L4 448.5L2 439.5L1 427.5L2 421.5L3.5 417.5L8.5 414.5L42 401L60.5 392.5L74 383.5L86 371L96 353.5L100.5 338.5L95 329.5L91.5 321L85 313L81.5 300L81 293.5L77.5 290L76.5 286.5L77.5 283V277L74.5 274L70.5 264.5L68.5 251.5L69.5 242.5L67 239.5V236.5L72 227L79.5 216.5C78.1667 215.5 75.5 213.4 75.5 213C75.5 212.6 76.5 210.5 77 209.5L83.5 198L84 186.5L74.5 177L71.5 170.5L69.5 165L68.5 156L70 148.5L70.5 143L72.5 135L76.5 127L73.5 125L71.5 122L71 118C71.5 116.833 72.7 114.2 73.5 113C74.3 111.8 78.8333 107.5 81 105.5L90.5 91L91 86.5L94.5 78L101.5 71Z" fill="black" stroke="black"/>
</svg>
